{
  "accessors": [
    {
      "bufferView": 2,
      "componentType": 5126,
      "count": 54695,
      "max": [
        0.9155709743499756,
        0.8705559968948364,
        0.9496480226516724
      ],
      "min": [
        -0.9155430197715759,
        -0.8714709877967834,
        -0.950206995010376
      ],
      "type": "VEC3"
    },
    {
      "bufferView": 2,
      "byteOffset": 656340,
      "componentType": 5126,
      "count": 54695,
      "max": [
        0.999998927116394,
        0.9999992847442627,
        0.9999774694442749
      ],
      "min": [
        -0.999991774559021,
        -0.9999996423721313,
        -0.9999991655349731
      ],
      "type": "VEC3"
    },
    {
      "bufferView": 3,
      "componentType": 5126,
      "count": 54695,
      "max": [
        0.9999998807907104,
        0.9999963045120239,
        0.9999995827674866,
        1.0
      ],
      "min": [
        -0.9999992251396179,
        -0.9999999403953552,
        -0.999995768070221,
        -1.0
      ],
      "type": "VEC4"
    },
    {
      "bufferView": 1,
      "componentType": 5126,
      "count": 54695,
      "max": [
        0.9986559748649597,
        0.9985870122909546
      ],
      "min": [
        0.0013439999893307686,
        0.0013439999893307686
      ],
      "type": "VEC2"
    },
    {
      "bufferView": 0,
      "componentType": 5125,
      "count": 120000,
      "type": "SCALAR"
    }
  ],
  "asset": {
    "extras": {
      "author": "viictor.axel11 (https://sketchfab.com/viictor.axel11)",
      "license": "CC-BY-4.0 (http://creativecommons.org/licenses/by/4.0/)",
      "source": "https://sketchfab.com/3d-models/ornate-golden-armor-40a43b1f09bb4befb2f5de5cf649b0da",
      "title": "ornate golden armor"
    },
    "generator": "Sketchfab-16.59.0",
    "version": "2.0"
  },
  "bufferViews": [
    {
      "buffer": 0,
      "byteLength": 480000,
      "name": "floatBufferViews",
      "target": 34963
    },
    {
      "buffer": 0,
      "byteLength": 437560,
      "byteOffset": 480000,
      "byteStride": 8,
      "name": "floatBufferViews",
      "target": 34962
    },
    {
      "buffer": 0,
      "byteLength": 1312680,
      "byteOffset": 917560,
      "byteStride": 12,
      "name": "floatBufferViews",
      "target": 34962
    },
    {
      "buffer": 0,
      "byteLength": 875120,
      "byteOffset": 2230240,
      "byteStride": 16,
      "name": "floatBufferViews",
      "target": 34962
    }
  ],
  "buffers": [
    {
      "byteLength": 3105360,
      "uri": "scene.bin"
    }
  ],
  "images": [
    {
      "uri": "textures/material_0_baseColor.png"
    },
    {
      "uri": "textures/material_0_metallicRoughness.png"
    },
    {
      "uri": "textures/material_0_normal.png"
    }
  ],
  "materials": [
    {
      "doubleSided": true,
      "name": "material_0",
      "normalTexture": {
        "index": 2
      },
      "pbrMetallicRoughness": {
        "baseColorTexture": {
          "index": 0
        },
        "metallicRoughnessTexture": {
          "index": 1
        }
      }
    }
  ],
  "meshes": [
    {
      "name": "Object_0",
      "primitives": [
        {
          "attributes": {
            "NORMAL": 1,
            "POSITION": 0,
            "TANGENT": 2,
            "TEXCOORD_0": 3
          },
          "indices": 4,
          "material": 0,
          "mode": 4
        }
      ]
    }
  ],
  "nodes": [
    {
      "children": [
        1
      ],
      "matrix": [
        1.0,
        0.0,
        0.0,
        0.0,
        0.0,
        2.220446049250313e-16,
        -1.0,
        0.0,
        0.0,
        1.0,
        2.220446049250313e-16,
        0.0,
        0.0,
        0.0,
        0.0,
        1.0
      ],
      "name": "Sketchfab_model"
    },
    {
      "children": [
        2
      ],
      "name": "base.obj.cleaner.materialmerger.gles"
    },
    {
      "mesh": 0,
      "name": "Object_2"
    }
  ],
  "samplers": [
    {
      "magFilter": 9729,
      "minFilter": 9987,
      "wrapS": 10497,
      "wrapT": 10497
    }
  ],
  "scene": 0,
  "scenes": [
    {
      "name": "Sketchfab_Scene",
      "nodes": [
        0
      ]
    }
  ],
  "textures": [
    {
      "sampler": 0,
      "source": 0
    },
    {
      "sampler": 0,
      "source": 1
    },
    {
      "sampler": 0,
      "source": 2
    }
  ]
}
