{
  "accessors": [
    {
      "bufferView": 2,
      "componentType": 5126,
      "count": 39936,
      "max": [
        0.37536698579788208,
        0.38232201337814331,
        0.79045999050140381
      ],
      "min": [
        -0.39188298583030701,
        -0.3777880072593689,
        -1.1035029888153076
      ],
      "type": "VEC3"
    },
    {
      "bufferView": 2,
      "byteOffset": 479232,
      "componentType": 5126,
      "count": 39936,
      "max": [
        1,
        0.99999618530273438,
        0.99995088577270508
      ],
      "min": [
        -0.99999845027923584,
        -0.99998903274536133,
        -0.99999940395355225
      ],
      "type": "VEC3"
    },
    {
      "bufferView": 3,
      "componentType": 5126,
      "count": 39936,
      "max": [
        0.9999883770942688,
        0.99907678365707397,
        0.99992525577545166,
        1
      ],
      "min": [
        -0.99995994567871094,
        -0.99999803304672241,
        -0.99977576732635498,
        -1
      ],
      "type": "VEC4"
    },
    {
      "bufferView": 1,
      "componentType": 5126,
      "count": 39936,
      "max": [
        1,
        1
      ],
      "min": [
        0,
        0
      ],
      "type": "VEC2"
    },
    {
      "bufferView": 0,
      "componentType": 5125,
      "count": 196116,
      "max": [
        39935
      ],
      "min": [
        0
      ],
      "type": "SCALAR"
    }
  ],
  "asset": {
    "extras": {
      "author": "Minneapolis Institute of Art (https://sketchfab.com/artsmia)",
      "license": "CC0-1.0 (http://creativecommons.org/publicdomain/zero/1.0/)",
      "source": "https://sketchfab.com/3d-models/mesopotamian-cylinder-seal-bb5cd29ea64141c09ad62d6bb79fecdd",
      "title": "Mesopotamian Cylinder Seal"
    },
    "generator": "Sketchfab-7.79.0",
    "version": "2.0"
  },
  "bufferViews": [
    {
      "buffer": 0,
      "byteLength": 784464,
      "byteOffset": 0,
      "name": "floatBufferViews",
      "target": 34963
    },
    {
      "buffer": 0,
      "byteLength": 319488,
      "byteOffset": 784464,
      "byteStride": 8,
      "name": "floatBufferViews",
      "target": 34962
    },
    {
      "buffer": 0,
      "byteLength": 958464,
      "byteOffset": 1103952,
      "byteStride": 12,
      "name": "floatBufferViews",
      "target": 34962
    },
    {
      "buffer": 0,
      "byteLength": 638976,
      "byteOffset": 2062416,
      "byteStride": 16,
      "name": "floatBufferViews",
      "target": 34962
    }
  ],
  "buffers": [
    {
      "byteLength": 2701392,
      "uri": "scene.bin"
    }
  ],
  "images": [
    {
      "uri": "textures/None_baseColor.jpeg"
    },
    {
      "uri": "textures/None_metallicRoughness.png"
    },
    {
      "uri": "textures/None_normal.png"
    }
  ],
  "materials": [
    {
      "doubleSided": true,
      "emissiveFactor": [
        0,
        0,
        0
      ],
      "name": "None",
      "normalTexture": {
        "index": 2,
        "scale": 1,
        "texCoord": 0
      },
      "pbrMetallicRoughness": {
        "baseColorFactor": [
          1,
          1,
          1,
          1
        ],
        "baseColorTexture": {
          "index": 0,
          "texCoord": 0
        },
        "metallicFactor": 0,
        "metallicRoughnessTexture": {
          "index": 1,
          "texCoord": 0
        },
        "roughnessFactor": 0.41634908539999999
      }
    }
  ],
  "meshes": [
    {
      "primitives": [
        {
          "attributes": {
            "NORMAL": 1,
            "POSITION": 0,
            "TANGENT": 2,
            "TEXCOORD_0": 3
          },
          "indices": 4,
          "material": 0,
          "mode": 4
        }
      ]
    }
  ],
  "nodes": [
    {
      "children": [
        1
      ],
      "name": "RootNode (gltf orientation matrix)",
      "rotation": [
        -0.70710678118654746,
        -0,
        -0,
        0.70710678118654757
      ]
    },
    {
      "children": [
        2
      ],
      "matrix": [
        0.0053047365508973598,
        -0.99992477893829346,
        -0.011059071868658066,
        0,
        0.99998098611831665,
        0.0053390860557556152,
        -0.0030788104049861431,
        0,
        0.0031376241240650415,
        -0.011042529717087746,
        0.99993407726287842,
        0,
        -0.0099900830537080765,
        -0.0077316770330071449,
        -9.4665701908525079e-05,
        1
      ],
      "name": "RootNode (model correction matrix)"
    },
    {
      "children": [
        3
      ],
      "name": "180215_mia329__002396_CylinderSeal2_64k_Oriented.obj.cleaner.materialmerger.gles"
    },
    {
      "mesh": 0,
      "name": ""
    }
  ],
  "samplers": [
    {
      "magFilter": 9729,
      "minFilter": 9987,
      "wrapS": 10497,
      "wrapT": 10497
    }
  ],
  "scene": 0,
  "scenes": [
    {
      "name": "OSG_Scene",
      "nodes": [
        0
      ]
    }
  ],
  "textures": [
    {
      "sampler": 0,
      "source": 0
    },
    {
      "sampler": 0,
      "source": 1
    },
    {
      "sampler": 0,
      "source": 2
    }
  ]
}

