{
  "accessors": [
    {
      "bufferView": 2,
      "componentType": 5126,
      "count": 65532,
      "max": [
        2.921766996383667,
        -1.3479382991790771,
        5.3611607551574707
      ],
      "min": [
        -3.1788830757141113,
        -10.996011734008789,
        -4.4382452964782715
      ],
      "type": "VEC3"
    },
    {
      "bufferView": 2,
      "byteOffset": 786384,
      "componentType": 5126,
      "count": 65532,
      "max": [
        0.99997705221176147,
        0.99995195865631104,
        0.99986982345581055
      ],
      "min": [
        -0.99998968839645386,
        -1,
        -0.99999409914016724
      ],
      "type": "VEC3"
    },
    {
      "bufferView": 3,
      "componentType": 5126,
      "count": 65532,
      "max": [
        0.99607843160629272,
        0.99607843160629272,
        0.99607843160629272,
        1
      ],
      "min": [
        0.10980392247438431,
        0.10980392247438431,
        0.023529412224888802,
        1
      ],
      "type": "VEC4"
    },
    {
      "bufferView": 1,
      "componentType": 5126,
      "count": 65532,
      "max": [
        0.97866398096084595,
        0.64526402950286865
      ],
      "min": [
        0.00053399999160319567,
        0.00088900001719594002
      ],
      "type": "VEC2"
    },
    {
      "bufferView": 0,
      "componentType": 5125,
      "count": 341874,
      "max": [
        65531
      ],
      "min": [
        0
      ],
      "type": "SCALAR"
    },
    {
      "bufferView": 2,
      "byteOffset": 1572768,
      "componentType": 5126,
      "count": 65532,
      "max": [
        2.9210731983184814,
        -0.88115769624710083,
        7.075404167175293
      ],
      "min": [
        -4.9256167411804199,
        -10.996085166931152,
        -4.4198718070983887
      ],
      "type": "VEC3"
    },
    {
      "bufferView": 2,
      "byteOffset": 2359152,
      "componentType": 5126,
      "count": 65532,
      "max": [
        0.99985522031784058,
        0.99990135431289673,
        0.99998676776885986
      ],
      "min": [
        -0.99999994039535522,
        -1,
        -0.99982947111129761
      ],
      "type": "VEC3"
    },
    {
      "bufferView": 3,
      "byteOffset": 1048512,
      "componentType": 5126,
      "count": 65532,
      "max": [
        0.99607843160629272,
        0.99607843160629272,
        0.99607843160629272,
        1
      ],
      "min": [
        0.074509806931018829,
        0.08235294371843338,
        0.043137256056070328,
        1
      ],
      "type": "VEC4"
    },
    {
      "bufferView": 1,
      "byteOffset": 524256,
      "componentType": 5126,
      "count": 65532,
      "max": [
        0.99961298704147339,
        0.7473139762878418
      ],
      "min": [
        0.00024399999529123306,
        0.00077400001464411616
      ],
      "type": "VEC2"
    },
    {
      "bufferView": 0,
      "byteOffset": 1367496,
      "componentType": 5125,
      "count": 311079,
      "max": [
        65531
      ],
      "min": [
        0
      ],
      "type": "SCALAR"
    },
    {
      "bufferView": 2,
      "byteOffset": 3145536,
      "componentType": 5126,
      "count": 65532,
      "max": [
        2.8048644065856934,
        -0.89386940002441406,
        7.0696430206298828
      ],
      "min": [
        -3.6344759464263916,
        -8.5791683197021484,
        -4.4382452964782715
      ],
      "type": "VEC3"
    },
    {
      "bufferView": 2,
      "byteOffset": 3931920,
      "componentType": 5126,
      "count": 65532,
      "max": [
        0.99997967481613159,
        0.99998944997787476,
        0.99999058246612549
      ],
      "min": [
        -0.99999737739562988,
        -0.99999994039535522,
        -0.99998462200164795
      ],
      "type": "VEC3"
    },
    {
      "bufferView": 3,
      "byteOffset": 2097024,
      "componentType": 5126,
      "count": 65532,
      "max": [
        0.99607843160629272,
        0.99607843160629272,
        0.99607843160629272,
        1
      ],
      "min": [
        0.10588235408067703,
        0.094117648899555206,
        0.043137256056070328,
        1
      ],
      "type": "VEC4"
    },
    {
      "bufferView": 1,
      "byteOffset": 1048512,
      "componentType": 5126,
      "count": 65532,
      "max": [
        0.99961197376251221,
        0.73559600114822388
      ],
      "min": [
        0.00024399999529123306,
        0.00073899998096749187
      ],
      "type": "VEC2"
    },
    {
      "bufferView": 0,
      "byteOffset": 2611812,
      "componentType": 5125,
      "count": 291570,
      "max": [
        65531
      ],
      "min": [
        0
      ],
      "type": "SCALAR"
    },
    {
      "bufferView": 2,
      "byteOffset": 4718304,
      "componentType": 5126,
      "count": 1783,
      "max": [
        2.8053257465362549,
        -0.87222003936767578,
        6.9008893966674805
      ],
      "min": [
        -1.031574010848999,
        -8.3543462753295898,
        -1.9969884157180786
      ],
      "type": "VEC3"
    },
    {
      "bufferView": 2,
      "byteOffset": 4739700,
      "componentType": 5126,
      "count": 1783,
      "max": [
        0.99955910444259644,
        0.994712233543396,
        0.98546093702316284
      ],
      "min": [
        -0.91445928812026978,
        -0.99999231100082397,
        -0.99172711372375488
      ],
      "type": "VEC3"
    },
    {
      "bufferView": 3,
      "byteOffset": 3145536,
      "componentType": 5126,
      "count": 1783,
      "max": [
        0.99607843160629272,
        0.99607843160629272,
        0.98823529481887817,
        1
      ],
      "min": [
        0.13725490868091583,
        0.16470588743686676,
        0.14117647707462311,
        1
      ],
      "type": "VEC4"
    },
    {
      "bufferView": 1,
      "byteOffset": 1572768,
      "componentType": 5126,
      "count": 1783,
      "max": [
        0.95806902647018433,
        0.72371101379394531
      ],
      "min": [
        0.00024399999529123306,
        0.00073899998096749187
      ],
      "type": "VEC2"
    },
    {
      "bufferView": 0,
      "byteOffset": 3778092,
      "componentType": 5125,
      "count": 3774,
      "max": [
        1782
      ],
      "min": [
        0
      ],
      "type": "SCALAR"
    }
  ],
  "asset": {
    "extras": {
      "author": "Limerick3D (https://sketchfab.com/Limerick3D)",
      "license": "CC0-1.0 (http://creativecommons.org/publicdomain/zero/1.0/)",
      "source": "https://sketchfab.com/3d-models/hunt-museum-horse-outside-1cd8a30ce7594f369fbf7f68fc336f02",
      "title": "Hunt Museum - Horse Outside"
    },
    "generator": "Sketchfab-8.36.0",
    "version": "2.0"
  },
  "bufferViews": [
    {
      "buffer": 0,
      "byteLength": 3793188,
      "byteOffset": 0,
      "name": "floatBufferViews",
      "target": 34963
    },
    {
      "buffer": 0,
      "byteLength": 1587032,
      "byteOffset": 3793188,
      "byteStride": 8,
      "name": "floatBufferViews",
      "target": 34962
    },
    {
      "buffer": 0,
      "byteLength": 4761096,
      "byteOffset": 5380220,
      "byteStride": 12,
      "name": "floatBufferViews",
      "target": 34962
    },
    {
      "buffer": 0,
      "byteLength": 3174064,
      "byteOffset": 10141316,
      "byteStride": 16,
      "name": "floatBufferViews",
      "target": 34962
    }
  ],
  "buffers": [
    {
      "byteLength": 13315380,
      "uri": "scene.bin"
    }
  ],
  "images": [
    {
      "uri": "textures/Limerick_Horse_Material_u1_v1_baseColor.jpeg"
    }
  ],
  "materials": [
    {
      "doubleSided": true,
      "name": "Limerick_Horse_Material_u1_v1",
      "pbrMetallicRoughness": {
        "baseColorFactor": [
          1,
          1,
          1,
          1
        ],
        "baseColorTexture": {
          "index": 0,
          "texCoord": 0
        },
        "metallicFactor": 0,
        "roughnessFactor": 0
      }
    }
  ],
  "meshes": [
    {
      "primitives": [
        {
          "attributes": {
            "COLOR_0": 2,
            "NORMAL": 1,
            "POSITION": 0,
            "TEXCOORD_0": 3
          },
          "indices": 4,
          "material": 0,
          "mode": 4
        }
      ]
    },
    {
      "primitives": [
        {
          "attributes": {
            "COLOR_0": 7,
            "NORMAL": 6,
            "POSITION": 5,
            "TEXCOORD_0": 8
          },
          "indices": 9,
          "material": 0,
          "mode": 4
        }
      ]
    },
    {
      "primitives": [
        {
          "attributes": {
            "COLOR_0": 12,
            "NORMAL": 11,
            "POSITION": 10,
            "TEXCOORD_0": 13
          },
          "indices": 14,
          "material": 0,
          "mode": 4
        }
      ]
    },
    {
      "primitives": [
        {
          "attributes": {
            "COLOR_0": 17,
            "NORMAL": 16,
            "POSITION": 15,
            "TEXCOORD_0": 18
          },
          "indices": 19,
          "material": 0,
          "mode": 4
        }
      ]
    }
  ],
  "nodes": [
    {
      "children": [
        1
      ],
      "name": "RootNode (gltf orientation matrix)",
      "rotation": [
        -0.70710678118654746,
        -0,
        -0,
        0.70710678118654757
      ]
    },
    {
      "children": [
        2
      ],
      "matrix": [
        -0.208509162068367,
        -0.97802042961120605,
        0,
        0,
        -0.010642349720001221,
        0.0022688969038426876,
        -0.99994081258773804,
        0,
        0.97796249389648438,
        -0.2084968090057373,
        -0.010881520807743073,
        0,
        -2.563521146774292,
        -6.6256909370422363,
        -4.6008834838867188,
        1
      ],
      "name": "RootNode (model correction matrix)"
    },
    {
      "children": [
        3,
        4,
        5,
        6
      ],
      "name": "Limerick_Horse.obj.cleaner.materialmerger.gles"
    },
    {
      "mesh": 0,
      "name": ""
    },
    {
      "mesh": 1,
      "name": ""
    },
    {
      "mesh": 2,
      "name": ""
    },
    {
      "mesh": 3,
      "name": ""
    }
  ],
  "samplers": [
    {
      "magFilter": 9729,
      "minFilter": 9987,
      "wrapS": 10497,
      "wrapT": 10497
    }
  ],
  "scene": 0,
  "scenes": [
    {
      "name": "OSG_Scene",
      "nodes": [
        0
      ]
    }
  ],
  "textures": [
    {
      "sampler": 0,
      "source": 0
    }
  ]
}

