{
  "accessors": [
    {
      "bufferView": 2,
      "componentType": 5126,
      "count": 60930,
      "max": [
        0.08445300161838531,
        0.8399680256843567,
        0.055681999772787094
      ],
      "min": [
        -0.05886400118470192,
        0.6783130168914795,
        -0.13593900203704834
      ],
      "type": "VEC3"
    },
    {
      "bufferView": 2,
      "byteOffset": 731160,
      "componentType": 5126,
      "count": 60930,
      "max": [
        0.9999457597732544,
        0.9999703764915466,
        0.9999841451644897
      ],
      "min": [
        -0.9999964833259583,
        -0.9996803402900696,
        -0.9998226761817932
      ],
      "type": "VEC3"
    },
    {
      "bufferView": 1,
      "componentType": 5126,
      "count": 60930,
      "max": [
        0.7977020144462585,
        0.9999840259552002
      ],
      "min": [
        6.399999983841553e-05,
        5.700000110664405e-05
      ],
      "type": "VEC2"
    },
    {
      "bufferView": 0,
      "componentType": 5125,
      "count": 357657,
      "type": "SCALAR"
    }
  ],
  "asset": {
    "extras": {
      "author": "Museu de Badalona (https://sketchfab.com/museubdn)",
      "license": "CC-BY-4.0 (http://creativecommons.org/licenses/by/4.0/)",
      "source": "https://sketchfab.com/3d-models/herma-de-bacus-museu-de-badalona-61c2cb45dc6d4bafa27ebbe5b6f3540a",
      "title": "Herma de Bacus. Museu de Badalona"
    },
    "generator": "Sketchfab-15.37.0",
    "version": "2.0"
  },
  "bufferViews": [
    {
      "buffer": 0,
      "byteLength": 1430628,
      "name": "floatBufferViews",
      "target": 34963
    },
    {
      "buffer": 0,
      "byteLength": 487440,
      "byteOffset": 1430628,
      "byteStride": 8,
      "name": "floatBufferViews",
      "target": 34962
    },
    {
      "buffer": 0,
      "byteLength": 1462320,
      "byteOffset": 1918068,
      "byteStride": 12,
      "name": "floatBufferViews",
      "target": 34962
    }
  ],
  "buffers": [
    {
      "byteLength": 3380388,
      "uri": "scene.bin"
    }
  ],
  "images": [
    {
      "uri": "textures/MB7655_119K_baseColor.jpeg"
    }
  ],
  "materials": [
    {
      "doubleSided": true,
      "name": "MB7655_119K",
      "pbrMetallicRoughness": {
        "baseColorTexture": {
          "index": 0
        },
        "metallicFactor": 0.0
      }
    }
  ],
  "meshes": [
    {
      "name": "Object_0",
      "primitives": [
        {
          "attributes": {
            "NORMAL": 1,
            "POSITION": 0,
            "TEXCOORD_0": 2
          },
          "indices": 3,
          "material": 0,
          "mode": 4
        }
      ]
    }
  ],
  "nodes": [
    {
      "children": [
        1
      ],
      "matrix": [
        1.0,
        0.0,
        0.0,
        0.0,
        0.0,
        0.7855663895606994,
        0.618777394294739,
        0.0,
        0.0,
        -0.618777394294739,
        0.7855663895606994,
        0.0,
        0.0,
        0.0,
        0.0,
        1.0
      ],
      "name": "Sketchfab_model"
    },
    {
      "children": [
        2
      ],
      "name": "MB7655_119K.obj.cleaner.materialmerger.gles"
    },
    {
      "mesh": 0,
      "name": "Object_2"
    }
  ],
  "samplers": [
    {
      "magFilter": 9729,
      "minFilter": 9987,
      "wrapS": 10497,
      "wrapT": 10497
    }
  ],
  "scene": 0,
  "scenes": [
    {
      "name": "Sketchfab_Scene",
      "nodes": [
        0
      ]
    }
  ],
  "textures": [
    {
      "sampler": 0,
      "source": 0
    }
  ]
}
