{
  "accessors": [
    {
      "bufferView": 2,
      "componentType": 5126,
      "count": 65532,
      "max": [
        1.2398699522018433,
        1.2512919902801514,
        0.96416002511978149
      ],
      "min": [
        -1.0932730436325073,
        -1.1851929426193237,
        -2.0005550384521484
      ],
      "type": "VEC3"
    },
    {
      "bufferView": 2,
      "byteOffset": 786384,
      "componentType": 5126,
      "count": 65532,
      "max": [
        0.9999687671661377,
        0.99999117851257324,
        0.99999523162841797
      ],
      "min": [
        -0.99999988079071045,
        -0.99999749660491943,
        -0.99999940395355225
      ],
      "type": "VEC3"
    },
    {
      "bufferView": 3,
      "componentType": 5126,
      "count": 65532,
      "max": [
        0.99911266565322876,
        0.99999529123306274,
        0.99998313188552856,
        1
      ],
      "min": [
        -0.99999737739562988,
        -0.99929904937744141,
        -0.99999380111694336,
        -1
      ],
      "type": "VEC4"
    },
    {
      "bufferView": 1,
      "componentType": 5126,
      "count": 65532,
      "max": [
        0.91053998470306396,
        0.99771499633789062
      ],
      "min": [
        0.17199000716209412,
        0
      ],
      "type": "VEC2"
    },
    {
      "bufferView": 0,
      "componentType": 5125,
      "count": 369054,
      "max": [
        65531
      ],
      "min": [
        0
      ],
      "type": "SCALAR"
    },
    {
      "bufferView": 2,
      "byteOffset": 1572768,
      "componentType": 5126,
      "count": 65532,
      "max": [
        1.3145400285720825,
        1.2144149541854858,
        1.9439870119094849
      ],
      "min": [
        -1.264583945274353,
        -1.2116739749908447,
        -1.9982019662857056
      ],
      "type": "VEC3"
    },
    {
      "bufferView": 2,
      "byteOffset": 2359152,
      "componentType": 5126,
      "count": 65532,
      "max": [
        0.9999690055847168,
        0.99999547004699707,
        0.9999992847442627
      ],
      "min": [
        -0.99999988079071045,
        -0.99998533725738525,
        -0.9999997615814209
      ],
      "type": "VEC3"
    },
    {
      "bufferView": 3,
      "byteOffset": 1048512,
      "componentType": 5126,
      "count": 65532,
      "max": [
        0.99999827146530151,
        0.99999469518661499,
        0.99998313188552856,
        1
      ],
      "min": [
        -0.99999439716339111,
        -0.9999929666519165,
        -0.99948263168334961,
        -1
      ],
      "type": "VEC4"
    },
    {
      "bufferView": 1,
      "byteOffset": 524256,
      "componentType": 5126,
      "count": 65532,
      "max": [
        0.95273101329803467,
        1
      ],
      "min": [
        0.11691500246524811,
        0
      ],
      "type": "VEC2"
    },
    {
      "bufferView": 0,
      "byteOffset": 1476216,
      "componentType": 5125,
      "count": 338277,
      "max": [
        65531
      ],
      "min": [
        0
      ],
      "type": "SCALAR"
    },
    {
      "bufferView": 2,
      "byteOffset": 3145536,
      "componentType": 5126,
      "count": 65532,
      "max": [
        1.3643410205841064,
        0.66083699464797974,
        3.0017690658569336
      ],
      "min": [
        -1.264583945274353,
        -0.80707001686096191,
        -1.0603430271148682
      ],
      "type": "VEC3"
    },
    {
      "bufferView": 2,
      "byteOffset": 3931920,
      "componentType": 5126,
      "count": 65532,
      "max": [
        0.99988782405853271,
        0.99999547004699707,
        0.99937820434570312
      ],
      "min": [
        -0.99995505809783936,
        -0.99999511241912842,
        -0.9836995005607605
      ],
      "type": "VEC3"
    },
    {
      "bufferView": 3,
      "byteOffset": 2097024,
      "componentType": 5126,
      "count": 65532,
      "max": [
        0.99990224838256836,
        0.99993276596069336,
        0.99896055459976196,
        1
      ],
      "min": [
        -0.99989235401153564,
        -0.99996352195739746,
        -0.9998321533203125,
        -1
      ],
      "type": "VEC4"
    },
    {
      "bufferView": 1,
      "byteOffset": 1048512,
      "componentType": 5126,
      "count": 65532,
      "max": [
        0.93371301889419556,
        1
      ],
      "min": [
        0,
        0.0038989998865872622
      ],
      "type": "VEC2"
    },
    {
      "bufferView": 0,
      "byteOffset": 2829324,
      "componentType": 5125,
      "count": 345645,
      "max": [
        65531
      ],
      "min": [
        0
      ],
      "type": "SCALAR"
    },
    {
      "bufferView": 2,
      "byteOffset": 4718304,
      "componentType": 5126,
      "count": 14078,
      "max": [
        1.1034519672393799,
        0.4721820056438446,
        3.0006930828094482
      ],
      "min": [
        -1.2511789798736572,
        -0.80574601888656616,
        0.89275598526000977
      ],
      "type": "VEC3"
    },
    {
      "bufferView": 2,
      "byteOffset": 4887240,
      "componentType": 5126,
      "count": 14078,
      "max": [
        0.96310484409332275,
        0.99901539087295532,
        0.99994170665740967
      ],
      "min": [
        -0.99743127822875977,
        -0.99998235702514648,
        -0.43480083346366882
      ],
      "type": "VEC3"
    },
    {
      "bufferView": 3,
      "byteOffset": 3145536,
      "componentType": 5126,
      "count": 14078,
      "max": [
        0.99649339914321899,
        0.9878159761428833,
        0.98470920324325562,
        1
      ],
      "min": [
        -0.99888461828231812,
        -0.99997377395629883,
        -0.99139541387557983,
        -1
      ],
      "type": "VEC4"
    },
    {
      "bufferView": 1,
      "byteOffset": 1572768,
      "componentType": 5126,
      "count": 14078,
      "max": [
        0.69173002243041992,
        0.83968597650527954
      ],
      "min": [
        0.035048998892307281,
        0.0020580000709742308
      ],
      "type": "VEC2"
    },
    {
      "bufferView": 0,
      "byteOffset": 4211904,
      "componentType": 5125,
      "count": 59496,
      "max": [
        14077
      ],
      "min": [
        0
      ],
      "type": "SCALAR"
    }
  ],
  "asset": {
    "extras": {
      "author": "Världskulturmuseerna (https://sketchfab.com/varldskulturmuseerna)",
      "license": "CC0-1.0 (http://creativecommons.org/publicdomain/zero/1.0/)",
      "source": "https://sketchfab.com/3d-models/skulptur-d2c6d60edc294c33add4edd14fae2915",
      "title": "Skulptur"
    },
    "generator": "Sketchfab-7.80.0",
    "version": "2.0"
  },
  "bufferViews": [
    {
      "buffer": 0,
      "byteLength": 4449888,
      "byteOffset": 0,
      "name": "floatBufferViews",
      "target": 34963
    },
    {
      "buffer": 0,
      "byteLength": 1685392,
      "byteOffset": 4449888,
      "byteStride": 8,
      "name": "floatBufferViews",
      "target": 34962
    },
    {
      "buffer": 0,
      "byteLength": 5056176,
      "byteOffset": 6135280,
      "byteStride": 12,
      "name": "floatBufferViews",
      "target": 34962
    },
    {
      "buffer": 0,
      "byteLength": 3370784,
      "byteOffset": 11191456,
      "byteStride": 16,
      "name": "floatBufferViews",
      "target": 34962
    }
  ],
  "buffers": [
    {
      "byteLength": 14562240,
      "uri": "scene.bin"
    }
  ],
  "images": [
    {
      "uri": "textures/material0_baseColor.png"
    },
    {
      "uri": "textures/material0_metallicRoughness.png"
    },
    {
      "uri": "textures/material0_normal.png"
    }
  ],
  "materials": [
    {
      "doubleSided": true,
      "emissiveFactor": [
        0,
        0,
        0
      ],
      "name": "material0",
      "normalTexture": {
        "index": 2,
        "scale": 1,
        "texCoord": 0
      },
      "occlusionTexture": {
        "index": 1,
        "strength": 1,
        "texCoord": 0
      },
      "pbrMetallicRoughness": {
        "baseColorFactor": [
          1,
          1,
          1,
          1
        ],
        "baseColorTexture": {
          "index": 0,
          "texCoord": 0
        },
        "metallicFactor": 0,
        "metallicRoughnessTexture": {
          "index": 1,
          "texCoord": 0
        },
        "roughnessFactor": 0.81196984529999994
      }
    }
  ],
  "meshes": [
    {
      "primitives": [
        {
          "attributes": {
            "NORMAL": 1,
            "POSITION": 0,
            "TANGENT": 2,
            "TEXCOORD_0": 3
          },
          "indices": 4,
          "material": 0,
          "mode": 4
        }
      ]
    },
    {
      "primitives": [
        {
          "attributes": {
            "NORMAL": 6,
            "POSITION": 5,
            "TANGENT": 7,
            "TEXCOORD_0": 8
          },
          "indices": 9,
          "material": 0,
          "mode": 4
        }
      ]
    },
    {
      "primitives": [
        {
          "attributes": {
            "NORMAL": 11,
            "POSITION": 10,
            "TANGENT": 12,
            "TEXCOORD_0": 13
          },
          "indices": 14,
          "material": 0,
          "mode": 4
        }
      ]
    },
    {
      "primitives": [
        {
          "attributes": {
            "NORMAL": 16,
            "POSITION": 15,
            "TANGENT": 17,
            "TEXCOORD_0": 18
          },
          "indices": 19,
          "material": 0,
          "mode": 4
        }
      ]
    }
  ],
  "nodes": [
    {
      "children": [
        1
      ],
      "name": "RootNode (gltf orientation matrix)",
      "rotation": [
        -0.70710678118654746,
        -0,
        -0,
        0.70710678118654757
      ]
    },
    {
      "children": [
        2
      ],
      "matrix": [
        -0.023551521822810173,
        -0.99885040521621704,
        0.041751522570848465,
        0,
        0.99962133169174194,
        -0.024123053997755051,
        -0.013238250277936459,
        0,
        0.014230205677449703,
        0.04142393171787262,
        0.99904030561447144,
        0,
        0.92714375257492065,
        4.4604001045227051,
        -10.204012870788574,
        1
      ],
      "name": "RootNode (model correction matrix)"
    },
    {
      "children": [
        3,
        4,
        5,
        6
      ],
      "name": "SculptureShaman.obj.cleaner.materialmerger.gles"
    },
    {
      "mesh": 0,
      "name": ""
    },
    {
      "mesh": 1,
      "name": ""
    },
    {
      "mesh": 2,
      "name": ""
    },
    {
      "mesh": 3,
      "name": ""
    }
  ],
  "samplers": [
    {
      "magFilter": 9729,
      "minFilter": 9987,
      "wrapS": 10497,
      "wrapT": 10497
    }
  ],
  "scene": 0,
  "scenes": [
    {
      "name": "OSG_Scene",
      "nodes": [
        0
      ]
    }
  ],
  "textures": [
    {
      "sampler": 0,
      "source": 0
    },
    {
      "sampler": 0,
      "source": 1
    },
    {
      "sampler": 0,
      "source": 2
    }
  ]
}

