{
  "accessors": [
    {
      "bufferView": 2,
      "componentType": 5126,
      "count": 47176,
      "max": [
        0.7488189935684204,
        0.6188079714775085,
        0.9499229788780212
      ],
      "min": [
        -0.7487800121307373,
        -0.6172999739646912,
        -0.9447129964828491
      ],
      "type": "VEC3"
    },
    {
      "bufferView": 2,
      "byteOffset": 566112,
      "componentType": 5126,
      "count": 47176,
      "max": [
        0.9999932050704956,
        0.9999974966049194,
        0.9999860525131226
      ],
      "min": [
        -0.9999892711639404,
        -0.9999994039535522,
        -0.9999693632125854
      ],
      "type": "VEC3"
    },
    {
      "bufferView": 3,
      "componentType": 5126,
      "count": 47176,
      "max": [
        1.0,
        0.9999849200248718,
        0.9999995827674866,
        1.0
      ],
      "min": [
        -0.9999997019767761,
        -0.9999971985816956,
        -0.999998927116394,
        1.0
      ],
      "type": "VEC4"
    },
    {
      "bufferView": 1,
      "componentType": 5126,
      "count": 47176,
      "max": [
        0.9986280202865601,
        0.9975879788398743
      ],
      "min": [
        0.0013719999697059393,
        0.0013719999697059393
      ],
      "type": "VEC2"
    },
    {
      "bufferView": 0,
      "componentType": 5125,
      "count": 120000,
      "type": "SCALAR"
    }
  ],
  "asset": {
    "extras": {
      "author": "viictor.axel11 (https://sketchfab.com/viictor.axel11)",
      "license": "CC-BY-4.0 (http://creativecommons.org/licenses/by/4.0/)",
      "source": "https://sketchfab.com/3d-models/detailed-ceremonial-mask-0429e6239e2443028a43f6faea7c6a39",
      "title": "detailed ceremonial mask"
    },
    "generator": "Sketchfab-16.59.0",
    "version": "2.0"
  },
  "bufferViews": [
    {
      "buffer": 0,
      "byteLength": 480000,
      "name": "floatBufferViews",
      "target": 34963
    },
    {
      "buffer": 0,
      "byteLength": 377408,
      "byteOffset": 480000,
      "byteStride": 8,
      "name": "floatBufferViews",
      "target": 34962
    },
    {
      "buffer": 0,
      "byteLength": 1132224,
      "byteOffset": 857408,
      "byteStride": 12,
      "name": "floatBufferViews",
      "target": 34962
    },
    {
      "buffer": 0,
      "byteLength": 754816,
      "byteOffset": 1989632,
      "byteStride": 16,
      "name": "floatBufferViews",
      "target": 34962
    }
  ],
  "buffers": [
    {
      "byteLength": 2744448,
      "uri": "scene.bin"
    }
  ],
  "images": [
    {
      "uri": "textures/material_0_baseColor.png"
    },
    {
      "uri": "textures/material_0_metallicRoughness.png"
    },
    {
      "uri": "textures/material_0_normal.png"
    }
  ],
  "materials": [
    {
      "doubleSided": true,
      "name": "material_0",
      "normalTexture": {
        "index": 2
      },
      "pbrMetallicRoughness": {
        "baseColorTexture": {
          "index": 0
        },
        "metallicRoughnessTexture": {
          "index": 1
        }
      }
    }
  ],
  "meshes": [
    {
      "name": "Object_0",
      "primitives": [
        {
          "attributes": {
            "NORMAL": 1,
            "POSITION": 0,
            "TANGENT": 2,
            "TEXCOORD_0": 3
          },
          "indices": 4,
          "material": 0,
          "mode": 4
        }
      ]
    }
  ],
  "nodes": [
    {
      "children": [
        1
      ],
      "matrix": [
        1.0,
        0.0,
        0.0,
        0.0,
        0.0,
        2.220446049250313e-16,
        -1.0,
        0.0,
        0.0,
        1.0,
        2.220446049250313e-16,
        0.0,
        0.0,
        0.0,
        0.0,
        1.0
      ],
      "name": "Sketchfab_model"
    },
    {
      "children": [
        2
      ],
      "name": "base.obj.cleaner.materialmerger.gles"
    },
    {
      "mesh": 0,
      "name": "Object_2"
    }
  ],
  "samplers": [
    {
      "magFilter": 9729,
      "minFilter": 9987,
      "wrapS": 10497,
      "wrapT": 10497
    }
  ],
  "scene": 0,
  "scenes": [
    {
      "name": "Sketchfab_Scene",
      "nodes": [
        0
      ]
    }
  ],
  "textures": [
    {
      "sampler": 0,
      "source": 0
    },
    {
      "sampler": 0,
      "source": 1
    },
    {
      "sampler": 0,
      "source": 2
    }
  ]
}
