{
  "accessors": [
    {
      "bufferView": 2,
      "componentType": 5126,
      "count": 18,
      "max": [
        0.30782800912857056,
        -0.3440595269203186,
        0.016508199274539948
      ],
      "min": [
        0.27507200837135315,
        -0.42839834094047546,
        -0.06697739660739899
      ],
      "type": "VEC3"
    },
    {
      "bufferView": 2,
      "byteOffset": 216,
      "componentType": 5126,
      "count": 18,
      "max": [
        -0.8509277701377869,
        0.005806954111903906,
        0.48959308862686157
      ],
      "min": [
        -0.9813581109046936,
        -0.2328227460384369,
        0.15456901490688324
      ],
      "type": "VEC3"
    },
    {
      "bufferView": 1,
      "componentType": 5126,
      "count": 18,
      "max": [
        0.03125,
        0.028666451573371887
      ],
      "min": [
        0.0,
        0.0
      ],
      "type": "VEC2"
    },
    {
      "bufferView": 0,
      "componentType": 5125,
      "count": 66,
      "type": "SCALAR"
    },
    {
      "bufferView": 2,
      "byteOffset": 432,
      "componentType": 5126,
      "count": 7027,
      "max": [
        0.2355847805738449,
        -0.26316890120506287,
        -0.11552268266677856
      ],
      "min": [
        -0.16977599263191223,
        -0.6560917496681213,
        -0.2765912711620331
      ],
      "type": "VEC3"
    },
    {
      "bufferView": 2,
      "byteOffset": 84756,
      "componentType": 5126,
      "count": 7027,
      "max": [
        0.970643937587738,
        0.9322894811630249,
        0.999085009098053
      ],
      "min": [
        -0.9605863690376282,
        -0.9955763220787048,
        -0.9999546408653259
      ],
      "type": "VEC3"
    },
    {
      "bufferView": 1,
      "byteOffset": 144,
      "componentType": 5126,
      "count": 7027,
      "max": [
        0.062255859375,
        0.06298828125
      ],
      "min": [
        0.0,
        0.0
      ],
      "type": "VEC2"
    },
    {
      "bufferView": 0,
      "byteOffset": 264,
      "componentType": 5125,
      "count": 39024,
      "type": "SCALAR"
    },
    {
      "bufferView": 2,
      "byteOffset": 169080,
      "componentType": 5126,
      "count": 22203,
      "max": [
        0.3236069977283478,
        -0.10044100880622864,
        0.3351989984512329
      ],
      "min": [
        -0.325296014547348,
        -0.7495590448379517,
        -0.35211238265037537
      ],
      "type": "VEC3"
    },
    {
      "bufferView": 2,
      "byteOffset": 435516,
      "componentType": 5126,
      "count": 22203,
      "max": [
        0.9999598860740662,
        0.9998084902763367,
        0.9999606013298035
      ],
      "min": [
        -0.9999212026596069,
        -0.9998844265937805,
        -0.9992040395736694
      ],
      "type": "VEC3"
    },
    {
      "bufferView": 1,
      "byteOffset": 56360,
      "componentType": 5126,
      "count": 22203,
      "max": [
        0.9992539882659912,
        0.9987019896507263
      ],
      "min": [
        2.9652899229404284e-06,
        2.8429500162019394e-05
      ],
      "type": "VEC2"
    },
    {
      "bufferView": 0,
      "byteOffset": 156360,
      "componentType": 5125,
      "count": 119292,
      "type": "SCALAR"
    }
  ],
  "asset": {
    "extras": {
      "author": "viictor.axel11 (https://sketchfab.com/viictor.axel11)",
      "license": "CC-BY-4.0 (http://creativecommons.org/licenses/by/4.0/)",
      "source": "https://sketchfab.com/3d-models/pieza6-9eaf95c7f7f247759fac51bafb81044c",
      "title": "PIEZA6"
    },
    "generator": "Sketchfab-16.62.0",
    "version": "2.0"
  },
  "bufferViews": [
    {
      "buffer": 0,
      "byteLength": 633528,
      "name": "floatBufferViews",
      "target": 34963
    },
    {
      "buffer": 0,
      "byteLength": 233984,
      "byteOffset": 633528,
      "byteStride": 8,
      "name": "floatBufferViews",
      "target": 34962
    },
    {
      "buffer": 0,
      "byteLength": 701952,
      "byteOffset": 867512,
      "byteStride": 12,
      "name": "floatBufferViews",
      "target": 34962
    }
  ],
  "buffers": [
    {
      "byteLength": 1569464,
      "uri": "scene.bin"
    }
  ],
  "images": [
    {
      "uri": "textures/GeneratedMat1_baseColor.png"
    },
    {
      "uri": "textures/GeneratedMat2_baseColor.png"
    },
    {
      "uri": "textures/material_1_baseColor.png"
    }
  ],
  "materials": [
    {
      "doubleSided": true,
      "name": "GeneratedMat1",
      "pbrMetallicRoughness": {
        "baseColorTexture": {
          "index": 0
        },
        "metallicFactor": 0.0
      }
    },
    {
      "doubleSided": true,
      "name": "GeneratedMat2",
      "pbrMetallicRoughness": {
        "baseColorTexture": {
          "index": 1
        },
        "metallicFactor": 0.0
      }
    },
    {
      "doubleSided": true,
      "name": "material_1",
      "pbrMetallicRoughness": {
        "baseColorTexture": {
          "index": 2
        },
        "metallicFactor": 0.0
      }
    }
  ],
  "meshes": [
    {
      "name": "Object_0",
      "primitives": [
        {
          "attributes": {
            "NORMAL": 1,
            "POSITION": 0,
            "TEXCOORD_0": 2
          },
          "indices": 3,
          "material": 0,
          "mode": 4
        }
      ]
    },
    {
      "name": "Object_1",
      "primitives": [
        {
          "attributes": {
            "NORMAL": 5,
            "POSITION": 4,
            "TEXCOORD_0": 6
          },
          "indices": 7,
          "material": 1,
          "mode": 4
        }
      ]
    },
    {
      "name": "Object_2",
      "primitives": [
        {
          "attributes": {
            "NORMAL": 9,
            "POSITION": 8,
            "TEXCOORD_0": 10
          },
          "indices": 11,
          "material": 2,
          "mode": 4
        }
      ]
    }
  ],
  "nodes": [
    {
      "children": [
        1
      ],
      "matrix": [
        1.0,
        0.0,
        0.0,
        0.0,
        0.0,
        2.220446049250313e-16,
        -1.0,
        0.0,
        0.0,
        1.0,
        2.220446049250313e-16,
        0.0,
        0.0,
        0.0,
        0.0,
        1.0
      ],
      "name": "Sketchfab_model"
    },
    {
      "children": [
        2,
        3,
        4
      ],
      "name": "PIEZA6.obj.cleaner.materialmerger.gles"
    },
    {
      "mesh": 0,
      "name": "Object_2"
    },
    {
      "mesh": 1,
      "name": "Object_3"
    },
    {
      "mesh": 2,
      "name": "Object_4"
    }
  ],
  "samplers": [
    {
      "magFilter": 9729,
      "minFilter": 9987,
      "wrapS": 10497,
      "wrapT": 10497
    }
  ],
  "scene": 0,
  "scenes": [
    {
      "name": "Sketchfab_Scene",
      "nodes": [
        0
      ]
    }
  ],
  "textures": [
    {
      "sampler": 0,
      "source": 0
    },
    {
      "sampler": 0,
      "source": 1
    },
    {
      "sampler": 0,
      "source": 2
    }
  ]
}
