{
  "accessors": [
    {
      "bufferView": 2,
      "componentType": 5126,
      "count": 14603,
      "max": [
        0.294748991727829,
        0.32924801111221313,
        0.327551007270813
      ],
      "min": [
        -0.29956701397895813,
        -0.32986900210380554,
        -0.3356029987335205
      ],
      "type": "VEC3"
    },
    {
      "bufferView": 2,
      "byteOffset": 175236,
      "componentType": 5126,
      "count": 14603,
      "max": [
        0.9999404549598694,
        0.9999439120292664,
        0.9997987747192383
      ],
      "min": [
        -0.9998291730880737,
        -0.9999532103538513,
        -0.9993610382080078
      ],
      "type": "VEC3"
    },
    {
      "bufferView": 1,
      "componentType": 5126,
      "count": 14603,
      "max": [
        0.9958570003509521,
        0.9997599720954895
      ],
      "min": [
        0.00010399999882793054,
        2.9999999242136255e-05
      ],
      "type": "VEC2"
    },
    {
      "bufferView": 0,
      "componentType": 5125,
      "count": 75000,
      "type": "SCALAR"
    }
  ],
  "asset": {
    "extras": {
      "author": "viictor.axel11 (https://sketchfab.com/viictor.axel11)",
      "license": "CC-BY-4.0 (http://creativecommons.org/licenses/by/4.0/)",
      "source": "https://sketchfab.com/3d-models/pieza8-7c86e0ba25854d1b826e786a3d274b02",
      "title": "PIEZA8"
    },
    "generator": "Sketchfab-16.62.0",
    "version": "2.0"
  },
  "bufferViews": [
    {
      "buffer": 0,
      "byteLength": 300000,
      "name": "floatBufferViews",
      "target": 34963
    },
    {
      "buffer": 0,
      "byteLength": 116824,
      "byteOffset": 300000,
      "byteStride": 8,
      "name": "floatBufferViews",
      "target": 34962
    },
    {
      "buffer": 0,
      "byteLength": 350472,
      "byteOffset": 416824,
      "byteStride": 12,
      "name": "floatBufferViews",
      "target": 34962
    }
  ],
  "buffers": [
    {
      "byteLength": 767296,
      "uri": "scene.bin"
    }
  ],
  "images": [
    {
      "uri": "textures/material_1.003_baseColor.png"
    }
  ],
  "materials": [
    {
      "doubleSided": true,
      "name": "material_1.003",
      "pbrMetallicRoughness": {
        "baseColorTexture": {
          "index": 0
        },
        "metallicFactor": 0.0
      }
    }
  ],
  "meshes": [
    {
      "name": "Object_0",
      "primitives": [
        {
          "attributes": {
            "NORMAL": 1,
            "POSITION": 0,
            "TEXCOORD_0": 2
          },
          "indices": 3,
          "material": 0,
          "mode": 4
        }
      ]
    }
  ],
  "nodes": [
    {
      "children": [
        1
      ],
      "matrix": [
        1.0,
        0.0,
        0.0,
        0.0,
        0.0,
        2.220446049250313e-16,
        -1.0,
        0.0,
        0.0,
        1.0,
        2.220446049250313e-16,
        0.0,
        0.0,
        0.0,
        0.0,
        1.0
      ],
      "name": "Sketchfab_model"
    },
    {
      "children": [
        2
      ],
      "name": "PIEZA8.obj.cleaner.materialmerger.gles"
    },
    {
      "mesh": 0,
      "name": "Object_2"
    }
  ],
  "samplers": [
    {
      "magFilter": 9729,
      "minFilter": 9987,
      "wrapS": 10497,
      "wrapT": 10497
    }
  ],
  "scene": 0,
  "scenes": [
    {
      "name": "Sketchfab_Scene",
      "nodes": [
        0
      ]
    }
  ],
  "textures": [
    {
      "sampler": 0,
      "source": 0
    }
  ]
}
